<?xml version="1.0"?>
<svg xmlns="http://www.w3.org/2000/svg" xmlns:xlink="http://www.w3.org/1999/xlink" xmlns:svgjs="http://svgjs.com/svgjs" version="1.1" width="512" height="512" x="0" y="0" viewBox="0 0 512 512" style="enable-background:new 0 0 512 512" xml:space="preserve" class=""><g><path xmlns="http://www.w3.org/2000/svg" d="m0 256c0 42.911 8.688 81.69 18.056 111.043s-11.399 20.704-15.835 42.93c-5.184 25.97 17.766 48.919 43.735 43.735 14.861-2.966 29.03-9.041 36.797-12.744 30.407 10.946 89.965 22.794 173.247 22.794s142.84-11.849 173.247-22.794c7.766 3.703 21.936 9.778 36.797 12.744 25.969 5.184 48.919-17.766 43.735-43.735-4.436-22.226-15.835-42.93-15.835-42.93 9.369-29.353 18.056-68.132 18.056-111.043s-8.688-81.69-18.056-111.043 11.399-20.703 15.835-42.929c5.184-25.969-17.766-48.919-43.735-43.735-14.861 2.966-29.03 9.041-36.797 12.744-30.407-10.946-89.965-22.794-173.247-22.794s-142.84 11.848-173.247 22.794c-7.766-3.703-21.936-9.778-36.797-12.744-25.969-5.184-48.918 17.765-43.735 43.735 4.436 22.226 15.835 42.929 15.835 42.929-9.368 29.353-18.056 68.132-18.056 111.043z" fill="#4981ff" data-original="#ffa549" style="" class=""/><path xmlns="http://www.w3.org/2000/svg" d="m509.35 407.928c-4.707 18.217-23.089 31.234-43.307 27.199-11.87-2.369-23.3-6.722-31.377-10.265-3.507-1.538-7.443-1.727-11.085-.541-31.828 10.361-89.197 20.857-167.582 20.857s-135.754-10.496-167.582-20.857c-3.642-1.185-7.578-.997-11.085.541-8.077 3.543-19.507 7.896-31.377 10.265-20.218 4.035-38.599-8.982-43.307-27.199-.149.68-.292 1.361-.428 2.044-5.185 25.973 17.982 48.929 43.944 43.693 14.784-2.981 28.857-9.017 36.587-12.702 30.407 10.946 89.965 22.794 173.247 22.794s142.84-11.849 173.247-22.794c7.73 3.685 21.803 9.721 36.587 12.702 25.963 5.236 49.13-17.72 43.945-43.693-.135-.683-.278-1.364-.427-2.044z" fill="#0012ff" data-original="#ff9200" style="" class=""/></g></svg>
