<?xml version="1.0"?>
<svg xmlns="http://www.w3.org/2000/svg" xmlns:xlink="http://www.w3.org/1999/xlink" xmlns:svgjs="http://svgjs.com/svgjs" version="1.1" width="512" height="512" x="0" y="0" viewBox="0 0 512 512" style="enable-background:new 0 0 512 512" xml:space="preserve" class=""><g><g xmlns="http://www.w3.org/2000/svg"><g><g><g><path d="m431.631 372.691h-352.15v-239.547c0-52.322 42.415-94.737 94.737-94.737h162.675c52.322 0 94.737 42.415 94.737 94.737v239.547z" fill="#3451e1" data-original="#e17734" style="" class=""/><path d="m336.893 38.406h-81.337v334.285h176.075v-239.548c0-52.321-42.416-94.737-94.738-94.737z" fill="#5d26dc" data-original="#dc4e26" style="" class=""/></g></g><g><g><path d="m401.437 345.002-145.881 10-144.993-10v-48.651c0-20.309 16.463-36.772 36.772-36.772h217.331c20.308 0 36.772 16.463 36.772 36.772v48.651z" fill="#3765e7" data-original="#e79e37" style="" class=""/><path d="m364.665 259.579h-109.109v95.423l145.881-10v-48.651c0-20.308-16.463-36.772-36.772-36.772z" fill="#3451e1" data-original="#e17734" style="" class=""/></g><g><path d="m511.979 232.973c-.785-28.856-24.19-52.533-53.036-53.629-31.471-1.195-57.36 23.963-57.36 55.167 0 .106.007.209.008.315h-.154v110.175h-290.874v-110.174h-.154c.001-.106.008-.209.008-.315 0-31.356-26.14-56.606-57.817-55.148-28.306 1.303-51.27 24.294-52.543 52.601-.893 19.872 8.723 37.558 23.761 47.969 10.872 7.528 17.61 19.687 17.61 32.911v145.749c0 8.284 6.716 15 15 15h33.548c8.284 0 15-6.716 15-15v-50.221h302.049v50.221c0 8.284 6.716 15 15 15h33.548c8.284 0 15-6.716 15-15v-145.749c0-13.224 6.737-25.383 17.61-32.911 14.781-10.235 24.325-27.5 23.796-46.961z" fill="#423eec" data-original="#ecbd3e" style="" class=""/><path d="m511.979 232.973c-.785-28.856-24.19-52.533-53.036-53.629-31.471-1.195-57.36 23.963-57.36 55.167 0 .106.007.209.008.315h-.154v110.175h-145.881v63.37h151.468v50.221c0 8.284 6.716 15 15 15h33.548c8.284 0 15-6.716 15-15v-145.749c0-13.224 6.737-25.383 17.61-32.911 14.782-10.233 24.326-27.498 23.797-46.959z" fill="#3765e7" data-original="#e79e37" style="" class=""/></g></g></g><g><g><g><g><path d="m325.994 177.903c-6.287 0-11.98-4.052-14.115-9.946-2.133-5.888-.23-12.679 4.605-16.644 4.865-3.989 11.816-4.459 17.216-1.27 5.379 3.176 8.23 9.683 7.004 15.791-1.391 6.926-7.64 12.069-14.71 12.069z" fill="#881c18" data-original="#ad2621" style="" class=""/></g></g><g><g><path d="m185.994 177.903c-6.287 0-11.98-4.051-14.115-9.946-2.13-5.88-.232-12.689 4.605-16.644 4.86-3.973 11.827-4.479 17.218-1.27 5.37 3.197 8.232 9.667 7.002 15.791-1.391 6.929-7.638 12.069-14.71 12.069z" fill="#5d26dc" data-original="#dc4e26" style="" class=""/></g></g></g><g><path d="m455 249.483c-6.285 0-11.979-4.049-14.115-9.942-2.132-5.881-.235-12.692 4.605-16.648 4.872-3.982 11.81-4.462 17.216-1.27 5.377 3.175 8.239 9.693 7.004 15.801-1.4 6.921-7.641 12.059-14.71 12.059z" fill="#3451e1" data-original="#e17734" style="" class=""/><g><path d="m57 249.483c-6.537 0-12.44-4.395-14.35-10.64-1.909-6.239.598-13.209 6.02-16.83 4.938-3.297 11.505-3.314 16.484-.109 5.32 3.426 7.941 10.096 6.391 16.229-1.666 6.593-7.742 11.35-14.545 11.35z" fill="#3765e7" data-original="#e79e37" style="" class=""/></g></g></g></g></g></svg>
